<?xml version="1.0" encoding="utf-8"?>
<!-- Generator: Adobe Illustrator 26.5.0, SVG Export Plug-In . SVG Version: 6.00 Build 0)  -->
<svg version="1.1" id="Layer_1" xmlns="http://www.w3.org/2000/svg" xmlns:xlink="http://www.w3.org/1999/xlink" x="0px" y="0px"
	 viewBox="0 0 229.6 45.3" style="enable-background:new 0 0 229.6 45.3;" xml:space="preserve">
<style type="text/css">
	.st0{fill:#FFFFFF;}
</style>
<path id="Path_292" d="M436.1-76.4l46.7,51.7l44.3,49.2l41.8,32l29.5,29.5L571.4,113l-36.9-32l-34.4-29.5L458.3,9.7l-29.5-29.5
	L411.5-37L436.1-76.4z"/>
<path id="Path_292_00000016062373546332508280000011307477053343413145_" class="st0" d="M0,0l69.6,3.5L135.7,7l52.2-7l41.7,0v38.3
	l-48.7,3.5l-45.2,3.5l-59.1,0l-41.7,0l-24.3,0L0,0z"/>
<path id="Path_293" d="M573.9-76.4l-46.7,51.7l-44.3,49.2l-41.8,32l-29.5,29.5l27.1,27.1l36.9-32l34.4-29.5l41.8-41.8l29.5-29.5
	l17.2-17.2L573.9-76.4z"/>
<path id="Path_293_00000139290685366962275430000009614360784718338953_" class="st0" d="M229.6,67.7L160,71.2l-66.1,3.5l-52.2-7
	L0,67.7L0,106l48.7,3.5l45.2,3.5l59.1,0l41.7,0l24.3,0L229.6,67.7z"/>
</svg>
