<svg xmlns="http://www.w3.org/2000/svg" width="554.77" height="75.709" viewBox="0 0 554.77 75.709">
  <path id="Path_568" data-name="Path 568" d="M460.589,5.991l33.9.788,23.149-.026,36.378-.013h22.323l33.347.472,32.979.474,25.446-.972L692.8,6.445h22.644l39.474.308,32.245.749L823,7.686l33.966.771,45.944-.166,30.074-.6,20.359-1.011,25.63.039,9.811.2h11.322l12.939,1.542-.822,23.9,1.609,19.274.009,6.939V65.51l.013,13.89-19.409.008-25.878.775-36.392.755-24.261-.755-33.157-.775-11.322-.762-33.965,1.521L794.7,78.616H773.673l-31.54.771-42.052,1.542-43.67-1.542L632.15,80.929H595.758l-22.644-1.542L545.619,81.7l-25.07-1.542-18.6.771L469.6,80.158l-10.514-3.084Z" transform="translate(-459.087 -5.991)" fill="#fff"/>
</svg>
