<?xml version="1.0" encoding="utf-8"?>
<!-- Generator: Adobe Illustrator 26.5.0, SVG Export Plug-In . SVG Version: 6.00 Build 0)  -->
<svg version="1.1" id="Layer_1" xmlns="http://www.w3.org/2000/svg" xmlns:xlink="http://www.w3.org/1999/xlink" x="0px" y="0px"
	 viewBox="0 0 178.7 184.6" style="enable-background:new 0 0 178.7 184.6;" xml:space="preserve">
<style type="text/css">
	.st0{fill:#FFFFFF;}
	.st1{font-family:'Helvetica';}
	.st2{font-size:14.845px;}
	.st3{fill:#737373;}
	.st4{font-family:'HelveticaLTStd-Roman';}
	.st5{font-size:15.911px;}
</style>
<g transform="matrix(1, 0, 0, 1, 0, 0)">
	<path id="Path_392-2" class="st0" d="M-286.4-46.1l0.7-18.6l-71.7,1.9l-89.2-0.2l-32.5-1.7V44.6l19.5-0.5l72.5,2.6l48.3-1.9
		l52.7,1.9l-0.7-57.6L-286.4-46.1z"/>
</g>
<g transform="matrix(1, 0, 0, 1, 0, 0)">
	<path id="Path_447-2" class="st0" d="M-162.4-178.1v32.7l0.9,8.2h15l26.9,1.5l35.6-0.7l37.5-0.2l25-0.7l16.2,0.7l-0.1-10.7v-16.4
		l-0.9-15l-24.9,0.7l-46.1-0.1l-33.6-0.4l-22.2-0.1L-162.4-178.1z"/>
</g>
<g transform="matrix(1, 0, 0, 1, 0, 0)">
	<path id="Path_445-2" class="st0" d="M-740.4-177.5l25-0.1l40,0.9l38-2h12v14l-1,16.8l1,11.7l-14,1.1h-26l-30,1.1l-26,0.1h-18
		L-740.4-177.5z"/>
</g>
<g transform="matrix(1, 0, 0, 1, 0, 0)">
	<path id="Path_444-2" class="st0" d="M-594.4-177.7h143l18-1h112v15l1,14v13l-24-1h-22l-26,1h-34l-29,1h-28l-29,1h-81L-594.4-177.7
		z"/>
</g>
<g transform="matrix(1, 0, 0, 1, 0, 0)">
	<path id="Path_446-2" class="st0" d="M-294.4-176.6l22-1.1h21h24h36v26.2l2,15.7h-52h-24l-29-0.1V-176.6z"/>
</g>
<path id="Path_95" d="M-625.4,35.9L-670.2-9h89.8L-625.4,35.9z"/>
<g>
	<text transform="matrix(1 0 0 1 -2.441406e-04 12.7457)" class="st1 st2">Mo</text>
	<text transform="matrix(1 0 0 1 28.3047 12.7457)" class="st1 st2">Tu</text>
	<text transform="matrix(1 0 0 1 52.1877 12.7457)" class="st1 st2">We</text>
	<text transform="matrix(1 0 0 1 81.3677 12.7457)" class="st1 st2">Th</text>
	<text transform="matrix(1 0 0 1 108.7987 12.7457)" class="st1 st2">Fr</text>
	<text transform="matrix(1 0 0 1 134.0017 12.7457)" class="st1 st2">Sa</text>
	<text transform="matrix(1 0 0 1 160.5417 12.7457)" class="st1 st2">Su</text>
	<text transform="matrix(1 0 0 1 136.8977 39.0307)" class="st3 st4 st5">1</text>
	<text transform="matrix(1 0 0 1 163.6597 39.0307)" class="st3 st4 st5">2</text>
	<text transform="matrix(1 0 0 1 4.4387 62.4907)" class="st4 st5">3</text>
	<text transform="matrix(1 0 0 1 31.3278 62.4907)" class="st4 st5">4</text>
	<text transform="matrix(1 0 0 1 56.5947 62.4907)" class="st4 st5">5</text>
	<text transform="matrix(1 0 0 1 84.4067 62.4907)" class="st4 st5">6</text>
	<text transform="matrix(1 0 0 1 111.2017 62.4907)" class="st4 st5">7</text>
	<text transform="matrix(1 0 0 1 136.8977 62.4907)" class="st3 st4 st5">8</text>
	<text transform="matrix(1 0 0 1 163.6597 62.4907)" class="st3 st4 st5">9</text>
	<text transform="matrix(1 0 0 1 1.5907 85.0137)" class="st4 st5">10</text>
	<text transform="matrix(1 0 0 1 28.4807 85.0137)" class="st4 st5">11</text>
	<text transform="matrix(1 0 0 1 53.7467 85.0137)" class="st4 st5">12</text>
	<text transform="matrix(1 0 0 1 81.5437 85.0137)" class="st4 st5">13</text>
	<text transform="matrix(1 0 0 1 108.3378 85.0137)" class="st4 st5">14</text>
	<text transform="matrix(1 0 0 1 134.0337 85.0137)" class="st3 st4 st5">15</text>
	<text transform="matrix(1 0 0 1 160.7968 85.0137)" class="st3 st4 st5">16</text>
	<text transform="matrix(1 0 0 1 1.5747 107.5367)" class="st4 st5">17</text>
	<text transform="matrix(1 0 0 1 28.4647 107.5367)" class="st4 st5">18</text>
	<text transform="matrix(1 0 0 1 53.7307 107.5367)" class="st4 st5">19</text>
	<text transform="matrix(1 0 0 1 81.5277 107.5367)" class="st4 st5">20</text>
	<text transform="matrix(1 0 0 1 108.3217 107.5367)" class="st4 st5">21</text>
	<text transform="matrix(1 0 0 1 134.0177 107.5367)" class="st3 st4 st5">22</text>
	<text transform="matrix(1 0 0 1 160.7797 107.5367)" class="st3 st4 st5">23</text>
	<text transform="matrix(1 0 0 1 1.5587 130.0597)" class="st4 st5">24</text>
	<text transform="matrix(1 0 0 1 28.4478 130.0597)" class="st4 st5">25</text>
	<text transform="matrix(1 0 0 1 53.7157 130.0597)" class="st4 st5">26</text>
	<text transform="matrix(1 0 0 1 81.5117 130.0597)" class="st4 st5">27</text>
	<text transform="matrix(1 0 0 1 108.3057 130.0597)" class="st4 st5">28</text>
	<text transform="matrix(1 0 0 1 134.0017 130.0597)" class="st3 st4 st5">29</text>
	<text transform="matrix(1 0 0 1 160.7637 130.0597)" class="st3 st4 st5">30</text>
	<text transform="matrix(1 0 0 1 1.5427 154.4727)" class="st4 st5">31</text>
	<path class="st3" d="M36,69.2c-6.5,0-11.8-5.3-11.8-11.8S29.5,45.6,36,45.6s11.8,5.3,11.8,11.8S42.5,69.2,36,69.2z M36,46.6
		c-6,0-10.8,4.8-10.8,10.8S30.1,68.2,36,68.2s10.8-4.8,10.8-10.8S42,46.6,36,46.6z"/>
	<path class="st3" d="M141.6,69.2c-6.5,0-11.8-5.3-11.8-11.8s5.3-11.8,11.8-11.8c6.5,0,11.8,5.3,11.8,11.8S148.1,69.2,141.6,69.2z
		 M141.6,46.6c-6,0-10.8,4.8-10.8,10.8s4.8,10.8,10.8,10.8s10.8-4.8,10.8-10.8S147.6,46.6,141.6,46.6z"/>
	<rect x="47.3" y="56.9" class="st3" width="83" height="1"/>
</g>
</svg>
