<?xml version="1.0" encoding="utf-8"?>
<!-- Generator: Adobe Illustrator 26.5.0, SVG Export Plug-In . SVG Version: 6.00 Build 0)  -->
<svg version="1.1" id="Layer_1" xmlns="http://www.w3.org/2000/svg" xmlns:xlink="http://www.w3.org/1999/xlink" x="0px" y="0px"
	 viewBox="0 0 89.8 44.9" style="enable-background:new 0 0 89.8 44.9;" xml:space="preserve">
<style type="text/css">
	.st0{fill:#FFFFFF;}
</style>
<g transform="matrix(1, 0, 0, 1, 0, 0)">
	<path id="Path_392-2" class="st0" d="M383.9-37.1l0.7-18.6l-71.7,1.9L223.7-54l-32.5-1.7V53.6l19.5-0.5l72.5,2.6l48.3-1.9l52.7,1.9
		l-0.7-57.6L383.9-37.1z"/>
</g>
<g transform="matrix(1, 0, 0, 1, 0, 0)">
	<path id="Path_447-2" class="st0" d="M507.9-169.1v32.7l0.9,8.2h15l26.9,1.5l35.6-0.7l37.5-0.2l25-0.7l16.2,0.7l-0.1-10.7v-16.4
		l-0.9-15l-24.9,0.7l-46.1-0.1l-33.6-0.4l-22.2-0.1L507.9-169.1z"/>
</g>
<g transform="matrix(1, 0, 0, 1, 0, 0)">
	<path id="Path_445-2" class="st0" d="M-70.1-168.5l25-0.1l40,0.9l38-2h12v14l-1,16.8l1,11.7l-14,1.1h-26l-30,1.1l-26,0.1h-18
		L-70.1-168.5z"/>
</g>
<g transform="matrix(1, 0, 0, 1, 0, 0)">
	<path id="Path_444-2" class="st0" d="M75.9-168.7h143l18-1h112v15l1,14v13l-24-1h-22l-26,1h-34l-29,1h-28l-29,1h-81L75.9-168.7z"/>
</g>
<g transform="matrix(1, 0, 0, 1, 0, 0)">
	<path id="Path_446-2" class="st0" d="M375.9-167.6l22-1.1h21h24h36v26.2l2,15.7h-52h-24l-29-0.1V-167.6z"/>
</g>
<path id="Path_95" d="M44.9,44.9L0,0h89.8L44.9,44.9z"/>
</svg>
