<?xml version="1.0" encoding="utf-8"?>
<!-- Generator: Adobe Illustrator 26.5.0, SVG Export Plug-In . SVG Version: 6.00 Build 0)  -->
<svg version="1.1" id="Layer_1" xmlns="http://www.w3.org/2000/svg" xmlns:xlink="http://www.w3.org/1999/xlink" x="0px" y="0px"
	 viewBox="0 0 274.2 180.3" style="enable-background:new 0 0 274.2 180.3;" xml:space="preserve">
<style type="text/css">
	.st0{fill:#FFFFFF;}
</style>
<g transform="matrix(1, 0, 0, 1, 0, 0)">
	<path id="Path_392-2" class="st0" d="M187.7-461.4l0.7-18.6l-71.7,1.9l-89.2-0.2L-5-480.1v109.3l19.5-0.5l72.5,2.6l48.3-1.9
		l52.7,1.9l-0.7-57.6L187.7-461.4z"/>
</g>
<g transform="matrix(1, 0, 0, 1, 0, 0)">
	<path id="Path_447-2" class="st0" d="M573-555.7v32.7l0.9,8.2h15l26.9,1.5l35.6-0.7l37.5-0.2l25-0.7l16.2,0.7l-0.1-10.7l0-16.4
		l-0.9-15.1l-24.9,0.7l-46.1-0.1l-33.6-0.4l-22.2-0.1L573-555.7z"/>
</g>
<g transform="matrix(1, 0, 0, 1, 0, 0)">
	<path id="Path_445-2" class="st0" d="M-5-555.1l25-0.1l40,0.9l38-2h12v14l-1,16.8l1,11.7l-14,1.1H70l-30,1.1l-26,0.1H-4L-5-555.1z"
		/>
</g>
<g transform="matrix(1, 0, 0, 1, 0, 0)">
	<path id="Path_444-2" class="st0" d="M141-555.3h143l18-1h112v15l1,14v13l-24-1h-22l-26,1h-34l-29,1h-28l-29,1h-81L141-555.3z"/>
</g>
<g transform="matrix(1, 0, 0, 1, 0, 0)">
	<path id="Path_446-2" class="st0" d="M441-554.2l22-1l21,0l24,0h36v26.2l2,15.7h-52l-24,0l-29,0V-554.2z"/>
</g>
<path id="Path_95" d="M31.4-239.8L-5-276.2h72.7L31.4-239.8z"/>
<text transform="matrix(1 0 0 1 -0.6958 -580.6407)" style="font-family:'MyriadPro-Regular'; font-size:12px;">MENU</text>
<text transform="matrix(1 0 0 1 0 -307.4282)" style="font-family:'MyriadPro-Regular'; font-size:12px;">PROGRAM</text>
<g transform="matrix(1, 0, 0, 1, 0, 0)">
	<path id="Path_94-2" class="st0" d="M273.2,91.4l0.9-38.7l0-31.8h-0.1V0h-12.6l-23.5,0.8h-28.8l-79.8,0.8L98,0.8H0l0.3,17.5
		l0.4,9.4l0.6,6.5h0.4l1.1,28.5l-0.9,41.9l0.5,44.7l0.7,31.1l39.6-1.2l79.9,1.2l98.9-1.2l52.7,1.2v-17.6l0-29.2L273.2,91.4z"/>
</g>
<g transform="matrix(1, 0, 0, 1, 0, 0)">
	<path id="Path_43-2" class="st0" d="M510.9-189h-78.5l-88.5,1.5l-70.8-0.6h-277L-5-144.6l3.1,44L-3-53.8l2.9,32.6h348.2l124.6-1.8
		l38.2,0v-30.8l1.4-36.7l-1.4-39l-2.8-36.2L510.9-189z"/>
</g>
</svg>
