<?xml version="1.0" encoding="utf-8"?>
<!-- Generator: Adobe Illustrator 26.5.0, SVG Export Plug-In . SVG Version: 6.00 Build 0)  -->
<svg version="1.1" id="Layer_1" xmlns="http://www.w3.org/2000/svg" xmlns:xlink="http://www.w3.org/1999/xlink" x="0px" y="0px"
	 viewBox="0 0 105 42" style="enable-background:new 0 0 105 42;" xml:space="preserve">
<style type="text/css">
	.st0{fill:#FFFFFF;}
</style>
<g transform="matrix(1, 0, 0, 1, 0, 0)">
	<path id="Path_392-2" class="st0" d="M8,131.6L8.7,113l-71.7,1.9l-89.2-0.2l-32.5-1.7v109.3l19.5-0.5l72.5,2.6l48.3-1.9l52.7,1.9
		l-0.7-57.6L8,131.6z"/>
</g>
<g transform="matrix(1, 0, 0, 1, 0, 0)">
	<path id="Path_447-2" class="st0" d="M132-0.4v32.7l0.9,8.2h15l26.9,1.5l35.6-0.7l37.5-0.2l25-0.7l16.2,0.7L289,30.5l0-16.4
		L288.1-1l-24.9,0.7l-46.1-0.1l-33.6-0.4l-22.2-0.1L132-0.4z"/>
</g>
<g transform="matrix(1, 0, 0, 1, 0, 0)">
	<path id="Path_445-2" class="st0" d="M-446,0.3l25-0.1l40,0.9l38-2h12v14l-1,16.8l1,11.7l-14,1.1h-26l-30,1.1l-26,0.1h-18L-446,0.3
		z"/>
</g>
<g transform="matrix(1, 0, 0, 1, 0, 0)">
	<path id="Path_444-2" class="st0" d="M-300,0h143l18-1h112v15l1,14v13l-24-1h-22l-26,1h-34l-29,1h-28l-29,1h-81L-300,0z"/>
</g>
<g transform="matrix(1, 0, 0, 1, 0, 0)">
	<path id="Path_446-2" class="st0" d="M0,1.1l22-1.1L43,0l24,0.1h36v26.2l2,15.7H53l-24,0L0,41.9V1.1z"/>
</g>
</svg>
