<?xml version="1.0" encoding="utf-8"?>
<!-- Generator: Adobe Illustrator 21.0.2, SVG Export Plug-In . SVG Version: 6.00 Build 0)  -->
<svg version="1.1" id="Layer_1" xmlns="http://www.w3.org/2000/svg" xmlns:xlink="http://www.w3.org/1999/xlink" x="0px" y="0px"
	 viewBox="0 0 200 95" style="enable-background:new 0 0 200 95;" xml:space="preserve">
<style type="text/css">
	.st0{fill:#272626;}
</style>
<path class="st0" d="M131.5,84c0,1.4,0,2.9,0,4.3h0c0,1.2,0,2.4,0,3.6c0,1.6,0.1,1.3,1.3,1.3c0.6,0,0.7-0.1,0.7-0.7
	c0-2.6,0-5.2,0-7.9c0-1.5,0.1-1.3-1.4-1.3C131.7,83.3,131.5,83.5,131.5,84 M120.1,84c0,1.4,0,2.8,0,4.2h0c0,1.4,0,2.8,0,4.2
	c0,0.7,0.1,0.7,0.8,0.7c0.1,0,0.2,0,0.4,0c0.8,0,0.9-0.1,0.9-0.9c0-1.5,0-3.1,0-4.6c0-0.2,0.1-0.3,0.2-0.5c0.2,0.1,0.3,0.2,0.5,0.2
	c0.1,0,0.1,0.1,0.2,0.2c1.2,1.6,2.4,3.2,3.6,4.8c0.4,0.6,0.8,0.8,1.6,0.8c0.7-0.1,0.8-0.1,0.8-0.8c0-2.6,0-5.2,0-7.8
	c0-1.5,0.1-1.3-1.4-1.3c-0.4,0-0.6,0.2-0.6,0.6c0,1.4,0,2.9,0,4.3c0,0.3-0.1,0.6-0.2,0.8c-0.2-0.2-0.5-0.3-0.7-0.5
	c-1.1-1.4-2.2-2.9-3.3-4.4c-0.5-0.7-1-1-1.9-0.9C120.2,83.4,120.1,83.4,120.1,84 M107.6,73.4c-0.3-1.1,0-2.7,0.8-3.3
	c1.4-1.1,2.3-1,3.6-0.4c0.3,0.2,0.7,0.5,1,0.5c0.3,0,0.6-0.5,0.8-0.8c0.1-0.1,0.1-0.1,0.2-0.2c0.2-0.2,0.2-0.5-0.1-0.7
	c-1.6-1.2-3.4-1.4-5.2-0.8c-2.4,0.7-3.6,2.9-3.4,5.2c0.3,3,2.5,4.7,5.3,4.6c1.5-0.1,2.2-0.4,3.2-1.2c0.5-0.4,0.5-0.5,0-1
	c-0.1-0.1-0.2-0.2-0.3-0.3c-0.3-0.4-0.6-0.4-1-0.1c-0.9,0.9-2.9,0.9-3.7,0.2C108.2,74.8,107.8,74.2,107.6,73.4 M105.8,56.8
	c0-1.2,0-2.4,0-3.5c0-1.5,0.2-1.4-1.4-1.4c-0.1,0-0.2,0-0.2,0c-0.2,0.2-0.4,0.3-0.4,0.5c0,2.6,0,5.3,0,7.9c0,1.4-0.3,1.4,1.4,1.4
	c0.1,0,0.1,0,0.2,0c0.3,0,0.5-0.2,0.5-0.6C105.9,59.7,105.9,58.2,105.8,56.8L105.8,56.8z M99.2,84.1c0,1.4,0,2.8,0,4.2h0
	c0,1.4,0,2.8,0,4.2c0,0.6,0.1,0.8,0.8,0.7c1.9,0,3.7-0.1,5.6,0c1.2,0,1.1-0.2,1.1-1.2c0,0,0,0,0,0c0-0.4-0.2-0.6-0.6-0.6
	c-1.1,0-2.2,0-3.3,0c-1.6,0-1.4-0.1-1.5-1.5c0-0.6,0.2-0.8,0.8-0.8c0.9,0,1.9,0,2.8,0c1.3,0,1.1-0.1,1.1-1c0-0.6-0.1-0.7-0.7-0.7
	c-0.9,0-1.7,0-2.6,0c-1.4,0-1.5,0.1-1.5-1.4c0-0.6,0.1-0.8,0.8-0.8c1.1,0,2.2,0,3.3,0c1.4,0,1.2,0.3,1.2-1.4c0-0.4-0.2-0.5-0.5-0.5
	c-2,0-4,0-6,0C99.4,83.3,99.2,83.4,99.2,84.1 M97.4,70.9c0-0.2,0-0.4,0-0.6c0-0.9,0.1-1,1-1c0.5,0,1.1,0,1.6,0
	c1,0.1,1.6,0.6,1.5,1.5c0,0.8-0.7,1.5-1.6,1.5c-0.3,0-0.7,0-1,0C97.3,72.5,97.4,72.5,97.4,70.9 M96.7,77.4c0.6,0,0.7-0.1,0.7-0.7
	c0-0.6,0-1.2,0-1.9c0-0.2,0.1-0.4,0.2-0.5c0.4-0.3,1.6-0.1,1.9,0.3c0.4,0.5,0.7,1,1.1,1.5c1,1.5,0.7,1.3,2.3,1.3c0.1,0,0.1,0,0.2,0
	c0.2,0,0.4-0.1,0.4-0.1c0-0.1,0-0.4-0.1-0.5c-0.6-0.8-1.1-1.6-1.7-2.4c-0.2-0.3-0.2-0.5,0.1-0.7c0.3-0.2,0.6-0.4,0.9-0.6
	c1-1,1.1-2.2,0.8-3.5c-0.3-1.3-1.4-1.9-2.5-2c-1.7-0.2-3.4-0.1-5.1-0.1c-0.3,0-0.5,0.2-0.4,0.5c0,1.5,0,2.9,0,4.4h0
	c0,1.2,0,2.4,0,3.5C95.4,77.7,95.4,77.4,96.7,77.4 M94.6,84c0,1.4,0,2.8,0,4.2h0c0,1.2,0,2.4,0,3.6c0,1.4-0.1,1.3,1.3,1.3
	c0.6,0,0.8-0.1,0.8-0.8c0-2.6,0-5.2,0-7.8c0-1.5,0-1.3-1.3-1.3C94.7,83.3,94.6,83.4,94.6,84 M95.4,54.5c0-0.8,0.1-0.9,0.9-0.9
	c0.5,0,1,0,1.5,0c0.3,0,0.6,0.1,0.9,0.3c0.5,0.2,0.6,0.6,0.5,1.1c-0.1,0.4-0.5,0.8-1,0.8c-0.5,0-0.9,0-1.4,0
	C95.4,55.8,95.4,55.8,95.4,54.5 M95.4,58.2c0-0.5,0.2-0.7,0.7-0.7c0.4,0,0.7,0,1.1,0c0,0,0-0.1,0-0.1c0.6,0.1,1.3,0.2,1.9,0.3
	c0.5,0.1,0.6,0.5,0.7,1c0,0.4-0.2,0.8-0.6,0.9c-0.4,0.1-0.7,0.2-1.1,0.3c-0.6,0-1.2,0-1.9,0c-0.5,0-0.7-0.2-0.7-0.7
	C95.4,58.9,95.4,58.5,95.4,58.2 M94,61.7c0.8,0,1.5,0,2.3,0c0,0,0,0.1,0,0.1c1.2-0.1,2.4-0.2,3.6-0.4c1.1-0.2,1.7-1.1,1.7-2.2
	c0.1-1-0.2-1.8-1.2-2.3c-0.4-0.2-0.4-0.5-0.1-0.9c0.2-0.3,0.5-0.6,0.6-0.9c0.5-1.6-0.4-3-2.1-3.2c-1.7-0.2-3.4-0.1-5.1-0.1
	c-0.3,0-0.5,0.2-0.5,0.5c0,1,0,2,0,3c0,1.9,0,3.7,0,5.5C93.4,61.5,93.5,61.7,94,61.7 M86.1,85.6c0-0.2,0.2-0.5,0.4-0.5
	c0.9,0,1.8,0,2.7,0.1c0.7,0.1,1,1.1,0.5,1.6c-0.3,0.3-0.7,0.4-1.1,0.5c-0.3,0.1-0.7,0-1,0v0c-0.3,0-0.6,0-1,0
	c-0.4,0-0.6-0.2-0.6-0.6C86.1,86.4,86,86,86.1,85.6 M86.1,90.7c0-0.3,0-0.7,0-1c0-0.4,0.2-0.7,0.6-0.7c0.8,0,1.7,0,2.5,0.1
	c1,0.1,1.6,1.1,0.9,1.8c-0.2,0.3-0.7,0.4-1.2,0.5c-0.4,0.1-0.7,0-1.1,0v0c-0.4,0-0.7,0-1.1,0C86.3,91.4,86.1,91.2,86.1,90.7
	 M84.1,88.2c0,1.4,0,2.9,0,4.3c0,0.4,0.1,0.7,0.6,0.6c1.7,0,3.5,0,5.2-0.1c0.5,0,1-0.2,1.4-0.4c1.6-1,1.5-3.5-0.1-4.3
	c-0.6-0.3-0.5-0.4-0.1-0.8c1.1-1,1-2.8-0.3-3.6c-0.7-0.4-1.5-0.6-2.2-0.6c-1.2,0-2.5,0-3.7,0c-0.7,0-0.9,0.1-0.9,0.9
	C84.1,85.5,84.1,86.9,84.1,88.2L84.1,88.2z M87.2,72.9c0.3-0.8,0.6-1.6,0.9-2.3c0.1-0.3,0.5-0.3,0.6,0.1c0.3,0.7,0.7,1.5,0.9,2.3
	c0.1,0.3-0.1,0.6-0.4,0.6c-0.3,0-0.5,0-0.8,0v0c-0.3,0-0.5,0-0.8,0C87.3,73.4,87.1,73.2,87.2,72.9 M83.5,76.8
	c-0.2,0.5,0,0.7,0.5,0.7c0.3,0,0.6,0,0.9,0c0.3,0,0.5-0.2,0.6-0.5c0.1-0.4,0.3-0.8,0.4-1.1c0.2-0.5,0.5-0.8,1.1-0.7
	c0.4,0.1,0.9,0,1.3,0v0c0.4,0,0.9,0,1.3,0c0.8,0,0.9,0.1,1.2,0.8c0,0.1,0.1,0.2,0.1,0.3c0.3,1.1,0.5,1.2,1.6,1.2c0.1,0,0.2,0,0.3,0
	c0.6,0,0.8-0.2,0.5-0.8c-0.4-0.8-0.8-1.6-1.1-2.5c-0.4-0.9-0.7-1.7-1-2.6c-0.5-1.2-1-2.4-1.5-3.5c-0.1-0.2-0.4-0.4-0.5-0.4
	c-0.6,0.1-1.4-0.4-1.8,0.3c-0.5,1-1,2.1-1.4,3.2c-0.4,0.9-0.7,1.8-1.1,2.7C84.4,74.8,84,75.8,83.5,76.8 M83.4,53.2
	c0,0.4,0.2,0.5,0.5,0.5c0.5,0,1,0,1.6,0c0.9,0,0.9,0,0.9,0.9c0,2.2,0,4.4,0,6.6c0,0.4,0.1,0.5,0.5,0.5c0.3,0,0.7,0,1,0
	c0.4,0,0.6-0.2,0.6-0.6c0-0.3,0-0.7,0-1c0-1.9,0-3.7,0-5.6c0-0.7,0.1-0.8,0.7-0.8c0.4,0,0.8,0,1.2,0c1.1,0,1.1,0,1.1-1
	c0.1-0.6-0.1-0.8-0.7-0.8c-1.1,0-2.3,0-3.4,0c-0.9,0-1.9,0-2.8,0C83.4,51.9,83.4,51.9,83.4,53.2 M51.5,51c0,0.7-0.1,0.8-0.8,0.8
	c-3.6,0-7.2,0.1-10.8,0c-3.6-0.1-6.8-1.2-9.3-3.9c-1.7-1.8-2.8-4-3.1-6.4c-0.3-2.8-0.3-5.5,0.8-8.1c0.8-1.8,2-3.4,3.6-4.6
	c2.4-1.8,5.1-2.5,8-2.5c3.6,0,7.2,0,10.8,0c0.7,0,0.8,0.1,0.8,0.8L51.5,51 M77.2,38.9L77.2,38.9c0-12.4,0-24.8,0-37.2
	c0-1.3,0-1.3-1.3-1.3c-11.4,0-39.7,0.2-42.4,0.7c-2.5,0.5-5,0.9-7.4,1.9c-1.9,0.8-3.8,1.5-5.7,2.5c-3,1.6-5.7,3.5-8.1,5.8
	c-3.1,2.9-5.7,6.3-7.6,10.2c-0.5,0.9-1,1.9-1.3,2.9c-0.5,1.5-1,3-1.4,4.5c-0.4,1.5-0.7,3-1,4.6c-0.2,1.3-0.2,2.6-0.3,4
	C0.6,41.7,1.1,46,2.3,50.2c0.6,2.1,1.4,4.2,2.4,6.2c1.7,3.4,3.9,6.4,6.5,9.2c2.5,2.6,5.3,4.7,8.4,6.5c1.9,1,3.9,1.9,5.9,2.7
	c2.5,0.9,5,1.7,7.6,2.1c2,0.3,4,0.6,6.1,0.6c5.3,0.1,30.2,0.1,37.4,0.1c0.4,0,0.6-0.2,0.6-0.6c0-0.3,0-0.6,0-0.9
	C77.2,63.6,77.2,51.3,77.2,38.9 M106.9,14.4c0-0.6-0.1-0.6-0.7-0.6c-2.6,0-17.4,0-22.3,0c-1,0-0.9,0-0.9,0.9c0,7.2,0,22.8,0,23.5
	c0,0.4,0.2,0.6,0.6,0.5c0.1,0,14.8,0,22.1,0c1.2,0,1.3,0.2,1.3-1.2 M115.5,60.4c0-0.4-0.2-0.6-0.6-0.5c-1.2,0-2.5,0-3.7,0
	c-0.5,0-0.7-0.2-0.7-0.7c0-1.1,0-2.2,0-3.3h0c0-0.9,0-1.7,0-2.6c0.1-1.5,0-1.3-1.3-1.3c-0.6,0-0.7,0.1-0.7,0.8c0,2.8,0,5.5,0,8.3
	c0,0.6,0.1,0.8,0.7,0.8c1.7,0,3.3,0,5,0C115.5,61.7,115.5,61.7,115.5,60.4 M116.4,83.3c-0.8,0-0.9,0.1-0.8,0.9c0,1.4,0,2.9,0,4.3
	c0,0.2-0.2,0.4-0.2,0.6c-0.2-0.1-0.4-0.2-0.5-0.4c-1.3-1.7-2.5-3.3-3.8-5c-0.2-0.3-0.5-0.5-0.9-0.4c-0.2,0-0.4,0-0.7,0
	c-0.6,0-0.7,0-0.7,0.7c0,1.4,0,2.8,0,4.2h0c0,1.2,0,2.4,0,3.5c0,1.8-0.1,1.4,1.4,1.5c0.4,0,0.6-0.2,0.6-0.5c0-1.6,0-3.1,0-4.7
	c0-0.3,0.1-0.6,0.2-0.8c0.2,0.2,0.5,0.3,0.6,0.5c1.2,1.6,2.5,3.2,3.6,4.8c0.4,0.6,0.8,0.8,1.5,0.8c0.7,0,0.8-0.1,0.8-0.8
	c0-2.6,0-5.2,0-7.9C117.5,83.3,117.6,83.3,116.4,83.3 M119.5,61.1c0-2.6,0-5.2,0-7.8c0-1.4,0.3-1.4-1.5-1.4c0,0,0,0-0.1,0
	c-0.4,0-0.5,0.2-0.5,0.6c0,1.4,0,2.9,0,4.3h0c0,1.2,0,2.4,0,3.6c0,1.5,0,1.5,1.5,1.4c0,0,0,0,0.1,0
	C119.4,61.6,119.5,61.5,119.5,61.1 M121.9,71.5c-1,0-2,0-3,0c-0.4,0-0.6-0.2-0.6-0.6c0-0.9,0-1.8,0-2.8c0-0.4-0.2-0.6-0.6-0.5
	c-0.3,0-0.6,0-0.9,0c-0.4,0-0.6,0.1-0.6,0.5c0,1.5,0,2.9,0,4.4c0,1.4,0,2.8,0,4.2c0,0.7,0,0.7,0.7,0.7c0.2,0,0.4,0,0.7,0
	c0.6,0,0.7,0,0.7-0.7c0-0.9,0-1.8,0-2.7c0-0.4,0.2-0.6,0.6-0.6c1,0,2,0,3,0c0.4,0,0.6,0.2,0.6,0.6c0,0.7,0,1.4,0,2.1
	c0,1.4-0.1,1.3,1.3,1.3c0.6,0,0.7-0.1,0.7-0.7c0-2.6,0-5.2,0-7.8c0-1.4,0-1.4-1.4-1.3c-0.1,0-0.2,0-0.3,0c-0.3,0-0.4,0.2-0.4,0.5
	c0,0.9,0,1.8,0,2.7C122.6,71.3,122.5,71.5,121.9,71.5 M129,57.7c-0.4-0.9-1.1-1.2-1.9-1.5c-0.8-0.3-1.7-0.6-2.6-0.9
	c-0.4-0.2-0.6-0.5-0.6-0.9c0-0.4,0.4-0.8,0.8-0.8c0.7-0.1,1.4,0,2.1,0.3c1,0.5,1,0.5,1.7-0.5c0.3-0.5,0.3-0.6-0.2-0.9
	c-1-0.6-2-0.8-3.1-0.8c-2.3,0-3.6,1.4-3.3,3.6c0.1,0.8,0.5,1.3,1.3,1.7c0.5,0.2,0.9,0.3,1.4,0.5c0.6,0.2,1.3,0.4,1.9,0.7
	c0.4,0.2,0.8,0.5,0.7,1c-0.1,0.4-0.6,0.8-1,0.8c-0.9,0.2-1.7-0.1-2.5-0.5c-1-0.5-1-0.5-1.7,0.3c-0.4,0.4-0.4,0.6,0.1,0.9
	c1.1,0.7,2.3,1,3.7,1.1c0.3,0,0.7-0.1,1.1-0.1C129.1,61.3,129.6,59.1,129,57.7 M129.3,76.8c0-2.9,0-5.8,0-8.7c0-0.3-0.1-0.5-0.4-0.5
	c-0.4,0-0.8,0-1.2,0c-0.3,0-0.5,0.2-0.5,0.5c0,1.4,0,2.9,0,4.3h0c0,1.4,0,2.9,0,4.3c0,0.6,0.1,0.7,0.7,0.7c0.3,0,0.5,0,0.8,0
	C129.2,77.4,129.3,77.3,129.3,76.8 M133.5,61.1c0-1.4,0-2.9,0-4.3h0c0-1.2,0-2.5,0-3.7c0-1.3,0.2-1.3-1.3-1.3
	c-0.6,0-0.7,0.1-0.7,0.7c0,2.8,0,5.6,0,8.5c0,0.4,0.1,0.6,0.5,0.6c0.4,0,0.7,0,1.1,0C133.3,61.6,133.5,61.5,133.5,61.1 M139.4,68.3
	c0-0.1,0-0.1,0-0.2c0.1-0.4-0.2-0.6-0.6-0.6c-1.2,0-2.3,0-3.5,0v0c-1,0-2.1,0-3.1,0c-0.9,0-0.9,0-1,1c0,0.1,0,0.2,0,0.3
	c0,0.5,0.1,0.7,0.7,0.6c0.6,0,1.1,0,1.7,0c0.4,0,0.7,0.2,0.7,0.7c0,2.1,0,4.2,0,6.4c0,0.9,0,0.9,0.9,0.9c0.2,0,0.3,0,0.5,0
	c0.5,0,0.7-0.1,0.7-0.7c0-2.2,0-4.4,0-6.6c0-0.4,0.2-0.7,0.6-0.7c0.4,0,0.8,0,1.2,0C139.3,69.5,139.3,69.5,139.4,68.3 M140.8,86.4
	c0.3,0.8,0.7,1.5,1,2.3c0.1,0.3-0.1,0.5-0.3,0.5c-0.3,0-0.6,0-0.9,0v0c-0.2,0-0.5,0-0.7,0c-0.5,0-0.7-0.2-0.5-0.7
	c0.3-0.7,0.5-1.4,0.8-2c0.1-0.1,0.2-0.3,0.3-0.3C140.6,86.1,140.8,86.3,140.8,86.4 M139.6,83.4C139.5,83.4,139.5,83.5,139.6,83.4
	c-0.3,0.7-0.6,1.4-0.9,2c-0.7,1.6-1.3,3.1-2,4.7c-0.4,0.8-0.7,1.7-1,2.5c-0.2,0.4,0,0.6,0.4,0.6c1.7-0.1,1.3,0.2,1.9-1.3
	c0-0.1,0.1-0.2,0.1-0.3c0.1-0.5,0.4-0.7,0.9-0.7h1.5v0c0.5,0,1,0,1.6,0c0.5,0,0.9,0.1,1,0.7c0.1,0.3,0.2,0.6,0.3,0.9
	c0.2,0.5,0.5,0.8,1.1,0.7c0.3,0,0.5,0,0.8,0c0.4,0,0.5-0.2,0.4-0.6c-0.7-1.5-1.3-3-2-4.6c-0.6-1.5-1.2-2.9-1.8-4.4
	C141.5,83.1,139.9,82.9,139.6,83.4 M148.7,76.8c0-0.2,0-0.3,0-0.5c0-0.6-0.1-0.7-0.7-0.7c-1.4,0-2.7,0-4.1,0c-0.6,0-0.7-0.1-0.7-0.7
	c0-0.3,0-0.6,0-0.9c0-0.4,0.2-0.6,0.6-0.6c1,0,2,0,2.9,0c1.5,0,1.2-0.1,1.2-1.3c0-0.4-0.2-0.5-0.6-0.5c-0.9,0-1.9,0-2.8,0
	c-1.2,0-1.4,0.1-1.3-1.2c0-0.8,0.1-0.9,0.9-0.9c1.1,0,2.2,0,3.3,0c1.3,0,1.2,0.2,1.2-1.2c0-0.6-0.1-0.7-0.7-0.7c-2.1,0-4.2,0-6.3,0
	c-0.4,0-0.6,0.1-0.6,0.6c0,1.4,0,2.9,0,4.3h0c0,1.4,0,2.9,0,4.3c0,0.6,0.1,0.7,0.7,0.7c2.1,0,4.1,0,6.2,0
	C148.5,77.4,148.7,77.2,148.7,76.8 M150.3,91.3c-0.7,0-0.8-0.2-0.8-0.8c0-2,0-3.9,0-5.9c0-1.5,0.1-1.4-1.4-1.4
	c-0.5,0-0.6,0.2-0.6,0.7c0,1.4,0,2.9,0,4.3h0c0,1.4,0,2.8,0,4.2c0,0.7,0.1,0.7,0.8,0.7c1.7,0,3.3,0,5,0c1.5,0,1.2-0.1,1.3-1.3
	c0-0.4-0.2-0.6-0.6-0.6C152.7,91.3,151.5,91.4,150.3,91.3 M152.7,73.6c-0.5-1.3-0.1-2.7,0.8-3.5c1.2-1,2.1-1.1,3.5-0.4
	c0.4,0.2,0.8,0.6,1.1,0.5c0.3-0.1,0.6-0.6,0.9-0.9c0,0,0,0,0,0c0.2-0.3,0.2-0.6-0.2-0.8c-1.7-1.1-3.6-1.3-5.5-0.5
	c-1.7,0.7-2.6,2-2.9,3.8c-0.4,2.2,0.8,4.3,2.5,5.3c1.6,0.9,4.4,0.7,5.8-0.5c0.7-0.6,0.7-0.6,0-1.3c-0.1-0.1-0.2-0.2-0.3-0.3
	c-0.2-0.3-0.5-0.3-0.7-0.1c-0.6,0.5-1.3,0.8-2,0.8C154.2,75.7,153.3,75.1,152.7,73.6 M168.8,68.3c0-0.1,0-0.1,0-0.2
	c0.1-0.5-0.2-0.6-0.6-0.6c-1.1,0-2.3,0-3.4,0v0c-1.1,0-2.3,0-3.4,0c-0.7,0-0.8,0.1-0.7,0.8c0,0.2,0,0.3,0,0.5c0,0.6,0.1,0.7,0.7,0.7
	c0.5,0,1.1,0,1.6,0c0.5,0,0.7,0.2,0.7,0.7c0,2,0,3.9,0,5.9c0,1.5-0.1,1.3,1.4,1.3c0.5,0,0.6-0.2,0.6-0.7c0-2.2,0-4.4,0-6.6
	c0-0.5,0.2-0.7,0.7-0.7c0.4,0,0.8,0,1.2,0C168.7,69.5,168.7,69.5,168.8,68.3 M179,69.9c0-0.3,0-0.7,0-1c0-1.3,0-1.3-1.3-1.3
	c-0.1,0-0.1,0-0.2,0c-0.4,0-0.5,0.2-0.5,0.6c0,1.8,0,3.5,0,5.3c0,1.1-0.6,2-1.4,2.1c-1.1,0.2-2.1,0.2-2.7-0.9
	c-0.2-0.5-0.3-1-0.3-1.5c0-1.4,0-2.8,0-4.2c0-1.4,0-1.5-1.5-1.4c0,0-0.1,0-0.1,0c-0.3,0-0.5,0.2-0.5,0.5c0,0.5,0,0.9,0,1.4
	c0,1.6,0,3.2,0.1,4.7c0.1,1.1,0.6,2,1.5,2.6c1.1,0.7,2.3,0.7,3.6,0.6c1.7-0.2,3.2-1.5,3.3-3.3c0-1.1,0-2.2,0-3.3c0,0,0.1,0,0.1,0
	C179,70.5,179,70.2,179,69.9 M187.5,70.7c0.1,0.7-0.2,1.3-0.9,1.5c-0.4,0.1-0.9,0.2-1.4,0.2c-0.4,0-0.7,0-1.1,0
	c-0.5,0-0.7-0.2-0.7-0.7c0-0.3,0-0.6,0-1h0c0-0.3,0-0.6,0-0.9c0-0.4,0.2-0.6,0.6-0.6c0.8,0,1.5,0,2.3,0.1
	C187,69.6,187.4,70.1,187.5,70.7 M187.9,74.6c-0.4-0.5-0.4-0.7,0.2-1c0.9-0.6,1.4-1.3,1.5-2.4c0.1-1.2-0.2-2.4-1.4-3
	c-0.7-0.4-1.5-0.6-2.3-0.6c-1.3,0-2.6,0-3.9,0c-0.4,0-0.6,0.1-0.5,0.5c0,1.4,0,2.9,0,4.3h0c0,1.2,0,2.4,0,3.6c0,1.5-0.2,1.4,1.5,1.3
	c0.4,0,0.5-0.2,0.5-0.6c0-0.7,0-1.3,0-2c0-0.2,0.1-0.5,0.3-0.6c0.5-0.3,1.6,0,1.9,0.5c0.5,0.7,0.9,1.4,1.3,2.1
	c0.2,0.3,0.5,0.5,0.9,0.6c0.4,0.1,0.8,0,1.3,0c0.5,0,0.6-0.2,0.3-0.6C189,76.1,188.4,75.3,187.9,74.6 M193.7,74.2
	c0-0.8,0-0.8,0.8-0.8c1.1,0,2.2,0,3.3,0c0.3,0,0.6,0,0.7-0.4c0-0.3,0-0.6,0-1c0-0.4-0.2-0.5-0.6-0.5c-1,0-2,0-3,0
	c-0.9,0-1.3,0-1.2-1.1c0,0,0-0.1,0-0.2c0-0.7,0.1-0.9,0.9-0.9c1.1,0,2.2,0,3.3,0c1.2,0,1.2,0,1.3-1.2c0-0.5-0.2-0.6-0.6-0.6
	c-2.1,0-4.2,0-6.4,0c-0.4,0-0.5,0.2-0.5,0.6c0,1.4,0,2.9,0,4.3h0c0,1.4,0,2.9,0,4.3c0,0.6,0.1,0.7,0.7,0.7c2.1,0,4.1,0,6.2,0
	c0.5,0,0.7-0.2,0.7-0.7c0-0.2,0-0.3,0-0.5c0-0.6-0.1-0.7-0.7-0.7c-1.1,0-2.3,0-3.4,0C193.5,75.6,193.8,75.7,193.7,74.2"/>
</svg>
